<?xml version="1.0" encoding="utf-8"?>
<!-- Generator: Adobe Illustrator 21.1.0, SVG Export Plug-In . SVG Version: 6.00 Build 0)  -->
<svg version="1.1" xmlns="http://www.w3.org/2000/svg" xmlns:xlink="http://www.w3.org/1999/xlink" x="0px" y="0px"
	 viewBox="0 0 75 65.3" style="enable-background:new 0 0 75 65.3;" xml:space="preserve">
<style type="text/css">
	.st0{fill:#FFCF01;}
	.st1{fill:#FFFFFF;}
</style>
<g id="Master_M_and_U-M_line">
	<polygon class="st0" points="37.7,29 28.4,16.2 28.4,25.5 32.1,25.5 32.1,34.7 14.9,34.7 14.9,25.5 18.4,25.5 18.4,11.3 14.9,11.3 
		14.9,2.1 28.4,2.1 37.7,15 47,2.1 60.4,2.1 60.4,11.3 56.9,11.3 56.9,25.5 60.4,25.5 60.4,34.7 43.3,34.7 43.3,25.5 47,25.5 
		47,16.2 37.7,29 	"/>
	<path class="st1" d="M49,40.6 M66.8,61.7v-0.2c0.2,0,0.4,0,0.4-0.2c0-0.1,0-0.1,0-0.2l-0.1-0.3h-1.2l-0.1,0.3c0,0.1,0,0.1,0,0.2
		c0,0.2,0.3,0.3,0.5,0.3v0.2h-1.4v-0.2c0.4,0,0.5-0.1,0.6-0.4l0.9-2.5l-0.1-0.1c0.4-0.1,0.5-0.2,0.7-0.3c0.1,0.2,0.1,0.3,0.1,0.5
		l0.8,2.3c0.1,0.4,0.2,0.5,0.6,0.5v0.2H66.8L66.8,61.7z M66.5,59L66,60.4h1L66.5,59L66.5,59z M54.7,61c-0.2,0.2-0.5,0.8-1.4,0.8
		c-1,0-1.7-0.8-1.7-1.7c0-0.9,0.6-1.8,1.7-1.8c0.6,0,0.9,0.3,1.1,0.4l0.2-0.2l0,1l-0.2,0c-0.1-0.2-0.1-0.4-0.4-0.6
		c-0.1-0.1-0.4-0.3-0.7-0.3c-0.6,0-1.1,0.5-1.1,1.4c0,0.7,0.4,1.4,1.2,1.4c0.6,0,0.8-0.3,1-0.6L54.7,61L54.7,61z M55.3,61.7v-0.2
		c0.4,0,0.4-0.1,0.4-0.4c0-0.1,0-0.2,0-0.4v-1.4c0-0.2,0-0.4,0-0.5c0-0.2-0.1-0.2-0.4-0.3v-0.2h1.5v0.2c-0.3,0-0.4,0-0.4,0.2
		c0,0.1,0,0.4,0,0.6v0.5c0.3,0,0.5,0,0.8,0c0.3,0,0.5,0,0.8,0v-0.6c0-0.6,0-0.6-0.5-0.7v-0.2h1.5v0.2c-0.4,0-0.4,0.1-0.4,0.7v1.4
		c0,0.1,0,0.6,0,0.7c0,0.2,0.1,0.2,0.4,0.2v0.2h-1.5v-0.2c0.3,0,0.4,0,0.5-0.3c0-0.1,0-0.2,0-0.5v-0.6c-0.3,0-0.5,0-0.8,0
		c-0.3,0-0.5,0-0.8,0v0.6c0,0.7,0,0.7,0.5,0.8v0.2H55.3L55.3,61.7z M59.5,61.7v-0.2c0.3,0,0.4-0.1,0.4-0.4v-0.4v-1.4
		c0-0.7,0-0.7-0.4-0.8v-0.2h1.4v0.2c-0.4,0-0.4,0.1-0.4,0.8v1.4c0,0.1,0,0.5,0,0.6c0,0.2,0.1,0.3,0.4,0.3v0.2H59.5L59.5,61.7z
		 M49.8,61.7v-0.2c0.3,0,0.4-0.1,0.4-0.4v-0.4v-1.4c0-0.7,0-0.7-0.4-0.8v-0.2h1.4v0.2c-0.4,0-0.4,0.1-0.4,0.8v1.4c0,0.1,0,0.5,0,0.6
		c0,0.2,0.1,0.3,0.4,0.3v0.2H49.8L49.8,61.7z M47.7,61.7v-0.2c0.4,0,0.4,0,0.4-0.7v-1.7l-1.2,2.6h-0.3l-1.1-2.6l0,2
		c0,0.3,0,0.4,0.4,0.4v0.2h-1.2v-0.2c0.3,0,0.4-0.1,0.4-0.3c0-0.1,0-0.4,0-0.6l0-1.4c0-0.1,0-0.3,0-0.4c0-0.3-0.1-0.4-0.4-0.4v-0.2
		h1.1l1.1,2.6l1.2-2.6h1v0.2c-0.4,0-0.4,0.1-0.4,0.6v1.4c0,0.2,0,0.5,0,0.7c0,0.2,0.1,0.3,0.4,0.3v0.2H47.7L47.7,61.7z M68.7,61.7
		v-0.2c0.3,0,0.4,0,0.4-0.2c0-0.2,0.1-2.2,0.1-2.6c-0.2-0.2-0.3-0.2-0.5-0.2v-0.2h1c0.3,0.4,0.3,0.5,0.8,1.1l0.9,1.2v-1.5
		c0-0.5,0-0.6-0.6-0.6v-0.2h1.3v0.2c-0.4,0-0.4,0.1-0.4,0.6l0,2.6h-0.2l-0.3-0.4c-0.2-0.2-0.3-0.4-0.5-0.6l-1.3-1.7v1.8
		c0,0.5,0,0.6,0.6,0.6v0.2H68.7L68.7,61.7z M40.4,60c0,1.2-0.8,1.8-1.7,1.8c-1,0-1.8-0.7-1.8-1.8c0-0.9,0.6-1.8,1.7-1.8
		C39.6,58.3,40.4,59,40.4,60L40.4,60z M38.7,61.5c0.2,0,0.5-0.1,0.7-0.4c0.2-0.4,0.3-0.7,0.3-1.1c0-0.4-0.1-0.8-0.4-1.1
		c-0.1-0.1-0.3-0.3-0.6-0.3c-0.3,0-0.5,0.2-0.6,0.3c-0.2,0.3-0.4,0.7-0.4,1.1c0,0.4,0.1,0.8,0.3,1.1C38.2,61.4,38.5,61.5,38.7,61.5
		L38.7,61.5z M40.7,61.5v0.2h1.4v-0.2c-0.4,0-0.4-0.1-0.4-0.4l0-1h0.4c0.4,0,0.6,0,0.6,0.4h0.2v-1.1h-0.2c0,0.4-0.1,0.4-0.5,0.4
		h-0.4v-1.2c0.1,0,0.2,0,0.4,0c0.7,0,0.9,0,1,0.5h0.2l-0.1-0.8h-2.5v0.2c0.2,0,0.4,0,0.4,0.2c0,0.1,0,0.5,0,0.6v1.2
		c0,0.1,0,0.5,0,0.6C41.1,61.5,41,61.5,40.7,61.5L40.7,61.5z M11.5,61.7v-0.2c0.3,0,0.4-0.1,0.4-0.4v-0.4v-1.4c0-0.7,0-0.7-0.4-0.8
		v-0.2H13v0.2c-0.4,0-0.4,0.1-0.4,0.8v1.4c0,0.1,0,0.5,0,0.6c0,0.2,0.1,0.2,0.4,0.3v0.2H11.5L11.5,61.7z M26.5,61.7v-0.2
		c0.3,0,0.4-0.1,0.4-0.4v-0.4v-1.4c0-0.7,0-0.7-0.4-0.8v-0.2h1.4v0.2c-0.4,0-0.4,0.1-0.4,0.8v1.4c0,0.1,0,0.5,0,0.6
		c0,0.2,0.1,0.2,0.4,0.3v0.2H26.5L26.5,61.7z M7.4,61.7v-0.2c0.3,0,0.4,0,0.4-0.2c0-0.2,0.1-2.2,0.1-2.6c-0.2-0.2-0.3-0.2-0.5-0.2
		v-0.2h1c0.3,0.4,0.3,0.5,0.8,1.1l0.9,1.2v-1.5c0-0.5,0-0.6-0.6-0.6v-0.2H11v0.2c-0.4,0-0.4,0.1-0.4,0.6l-0.1,2.6h-0.2L10,61.4
		c-0.2-0.2-0.3-0.4-0.5-0.6l-1.3-1.7v1.8c0,0.5,0,0.6,0.6,0.6v0.2H7.4L7.4,61.7z M23.7,60.7l0.2,0c0.2,0.6,0.5,0.9,1,0.9
		c0.4,0,0.7-0.2,0.7-0.5c0-0.4-0.4-0.5-0.5-0.6c-0.1,0-0.3-0.1-0.4-0.1c-0.3-0.1-0.8-0.3-0.8-1c0-0.6,0.5-1,1.1-1
		c0.2,0,0.5,0,0.8,0.2l0.2-0.2l0.1,1l-0.2,0c-0.1-0.2-0.1-0.3-0.2-0.5c-0.2-0.2-0.4-0.3-0.7-0.3c-0.4,0-0.6,0.2-0.6,0.4
		c0,0.4,0.4,0.5,0.8,0.7c0.2,0.1,0.4,0.1,0.5,0.2c0.3,0.2,0.5,0.5,0.5,0.9c0,0.6-0.5,1.1-1.2,1.1c-0.5,0-0.7-0.2-0.9-0.3l-0.3-0.2
		L23.7,60.7L23.7,60.7z M29.3,61.7v-0.1c0.3,0,0.4-0.1,0.4-0.4v-2.5h-0.4c-0.4,0-0.6,0-0.7,0.6h-0.2l0-1h3.1l0,1h-0.2
		c0-0.6-0.3-0.6-0.7-0.6h-0.4v2.5c0,0.3,0.1,0.4,0.4,0.4v0.1H29.3L29.3,61.7z M4.8,58.3v0.2c-0.4,0-0.4,0.1-0.5,0.8v0.8
		c0,0.4,0,0.8,0.2,1.1c0.2,0.3,0.5,0.3,0.6,0.3c0.5,0,0.8-0.2,0.9-0.7c0.1-0.3,0.1-0.9,0.1-1.3c0-0.1,0-0.5,0-0.6
		c0-0.3-0.2-0.3-0.5-0.3v-0.2H7v0.2c-0.3,0-0.4,0.1-0.4,0.4c0,0.1,0,1,0,1.2c0,0.3,0,0.5-0.1,0.8c-0.2,0.9-1.1,1-1.4,1
		c-0.2,0-0.6,0-0.9-0.2c-0.5-0.3-0.5-0.9-0.5-1.4v-0.8c0-0.4,0-0.5,0-0.6c0-0.2-0.1-0.3-0.4-0.3v-0.2H4.8L4.8,58.3z M16.8,58.3v0.2
		c-0.3,0.1-0.4,0.1-0.6,0.8l-1,2.5H15l-0.9-2.5c-0.2-0.6-0.3-0.7-0.6-0.8v-0.2h1.6v0.2c-0.3,0-0.4,0-0.4,0.2c0,0.1,0,0.2,0.1,0.5
		l0.6,1.7l0.7-1.8c0-0.1,0.1-0.3,0.1-0.4c0-0.2-0.2-0.3-0.5-0.3v-0.2H16.8L16.8,58.3z M32.9,61.7v-0.2c0.3,0,0.4,0,0.4-0.1
		c0.1-0.1,0.1-0.2,0.1-0.5v-0.6l-0.9-1.4c-0.2-0.4-0.3-0.4-0.6-0.4v-0.2h1.8v0.2c-0.4,0-0.5,0-0.5,0.2c0,0.1,0.1,0.2,0.1,0.3
		l0.5,0.8l0.5-0.8c0.1-0.2,0.1-0.3,0.1-0.3c0-0.2-0.1-0.2-0.4-0.2v-0.2h1.3v0.2c-0.3,0-0.4,0.1-0.8,0.7l-0.5,0.9v0.7
		c0,0.6,0,0.7,0.5,0.7v0.2H32.9L32.9,61.7z M19.8,61.7c0-0.2,0-0.6,0.1-0.9h-0.2c-0.1,0.6-0.5,0.6-0.9,0.6c-0.5,0-0.5-0.1-0.5-0.3
		v-1h0.4c0.4,0,0.5,0,0.5,0.4h0.2v-1.1h-0.2c0,0.3-0.1,0.4-0.5,0.4h-0.4v-1.2h0.4c0.6,0,0.8,0,0.9,0.5h0.2l0-0.8h-2.4v0.2
		c0.2,0,0.4,0,0.4,0.2c0,0.1,0,0.5,0,0.6v1.2c0,0.1,0,0.5,0,0.6c0,0.4-0.1,0.4-0.4,0.4v0.2H19.8L19.8,61.7z M64.7,60.2v0.2
		c-0.3,0-0.3,0.1-0.3,0.8v0.3c-0.3,0.2-0.6,0.4-1.3,0.4c-1.2,0-1.7-0.9-1.7-1.8c0-1.1,0.7-1.8,1.7-1.8c0.6,0,0.9,0.2,1.2,0.4
		l0.2-0.2l0,1.1l-0.1,0c-0.1-0.2-0.2-0.4-0.4-0.7c-0.1-0.1-0.3-0.2-0.7-0.2c-0.6,0-1.1,0.5-1.1,1.5c0,0.8,0.4,1.4,1,1.4
		c0.4,0,0.6-0.3,0.6-0.3c0.1-0.1,0.1-0.2,0.1-0.3c0-0.4-0.1-0.4-0.4-0.5v-0.2H64.7L64.7,60.2z M21.3,59.9c0.1,0,0.2,0,0.3,0
		c0.4,0,0.7-0.3,0.7-0.6c0-0.4-0.2-0.7-0.8-0.7c-0.1,0-0.1,0-0.2,0V59.9L21.3,59.9z M21.3,60.6c0,0.8,0,0.9,0.4,0.9v0.2h-1.4v-0.2
		c0.4,0,0.4-0.1,0.4-0.5c0-0.1,0-0.3,0-0.4v-1.2c0-0.4,0-0.5,0-0.7c0-0.2-0.1-0.2-0.4-0.2v-0.2l1.5,0c0.8,0,1.1,0.4,1.1,0.9
		c0,0.3-0.2,0.8-0.7,0.9l0.6,1c0.2,0.4,0.3,0.5,0.6,0.5v0.1c-0.1,0-0.1,0-0.2,0c-0.6,0-0.9-0.2-1.2-0.8l-0.2-0.4
		c-0.2-0.4-0.3-0.4-0.6-0.4L21.3,60.6L21.3,60.6z M21.3,60.6 M12,54.8 M19.6,54.8 M26.4,54.7 M28.1,54.8 M33.6,54.8 M36.6,54.8
		 M41.1,54.8 M50.7,54.8 M56.3,54.8 M63.1,54.7"/>
</g>
<g id="CoE">
	<g>
		<path class="st1" d="M18,45.7v-6.5h2.2l1,4.4h0l1.1-4.4h2.1v6.5h-1.3v-5h0l-1.3,5h-1.3l-1.2-5h0v5H18z"/>
		<path class="st1" d="M25.6,45.7v-6.5h1.4v6.5H25.6z"/>
		<path class="st1" d="M28,42.4c0-1.7,0-3.4,2.2-3.4c1.4,0,1.9,0.8,1.9,2.2h-1.3c0-0.9-0.2-1.2-0.6-1.2c-0.8,0-0.9,0.7-0.9,2.4
			c0,1.7,0.1,2.4,0.9,2.4c0.6,0,0.6-0.8,0.6-1.3h1.3c0,1.7-0.7,2.3-2,2.3C28,45.8,28,44.1,28,42.4z"/>
		<path class="st1" d="M36,41.8v-2.6h1.4v6.5H36v-2.9h-1.6v2.9h-1.4v-6.5h1.4v2.6H36z"/>
		<path class="st1" d="M38.6,45.7v-6.5h1.4v6.5H38.6z"/>
		<path class="st1" d="M44,41.2c0-0.6-0.1-1.1-0.8-1.1c-0.8,0-0.8,1.1-0.8,2.4c0,2,0.2,2.4,1,2.4c0.2,0,0.5-0.1,0.7-0.1v-1.4h-0.7
			v-1h2.1v3.3c-0.4,0.1-1.3,0.2-1.8,0.2c-2.3,0-2.5-0.9-2.5-3.4c0-1.6,0.1-3.3,2.3-3.3c1.3,0,2.2,0.7,2.1,2.1H44z"/>
		<path class="st1" d="M46.1,45.7l1.8-6.5h1.8l1.8,6.5H50l-0.4-1.4h-1.9l-0.4,1.4H46.1z M48.7,40.4L48.7,40.4L48,43.3h1.3L48.7,40.4
			z"/>
		<path class="st1" d="M52.1,45.7v-6.5h1.8l1.7,4.5h0v-4.5h1.3v6.5h-1.8l-1.8-4.8h0v4.8H52.1z"/>
		<path class="st1" d="M11.8,54.7v-6.5h3.5v1h-2.2v1.6h2v1h-2v1.9h2.3v1H11.8z"/>
		<path class="st1" d="M16.3,54.7v-6.5h1.8l1.7,4.5h0v-4.5h1.3v6.5h-1.8l-1.8-4.8h0v4.8H16.3z"/>
		<path class="st1" d="M25.3,50.2c0-0.6-0.1-1.1-0.8-1.1c-0.8,0-0.8,1.1-0.8,2.4c0,2,0.2,2.4,1,2.4c0.2,0,0.5-0.1,0.7-0.1v-1.4h-0.7
			v-1h2.1v3.3c-0.4,0.1-1.3,0.2-1.8,0.2c-2.3,0-2.5-0.9-2.5-3.4c0-1.6,0.1-3.3,2.3-3.3c1.3,0,2.2,0.7,2.1,2.1H25.3z"/>
		<path class="st1" d="M27.8,54.7v-6.5h1.4v6.5H27.8z"/>
		<path class="st1" d="M30.3,54.7v-6.5h1.8l1.7,4.5h0v-4.5h1.3v6.5h-1.8l-1.8-4.8h0v4.8H30.3z"/>
		<path class="st1" d="M36.3,54.7v-6.5h3.5v1h-2.2v1.6h2v1h-2v1.9h2.3v1H36.3z"/>
		<path class="st1" d="M40.8,54.7v-6.5h3.5v1h-2.2v1.6h2v1h-2v1.9h2.3v1H40.8z"/>
		<path class="st1" d="M46.6,54.7h-1.4v-6.5h2.5c0.9,0,1.5,0.6,1.5,1.7c0,0.8-0.3,1.4-1.2,1.6v0c0.3,0,1.2,0.1,1.2,1.3
			c0,0.4,0,1.6,0.2,1.9h-1.3c-0.2-0.4-0.1-0.8-0.1-1.3c0-0.8,0.1-1.4-1-1.4h-0.4V54.7z M46.6,51h0.6c0.5,0,0.7-0.5,0.7-1
			c0-0.6-0.3-0.9-0.7-0.9h-0.6V51z"/>
		<path class="st1" d="M50.3,54.7v-6.5h1.4v6.5H50.3z"/>
		<path class="st1" d="M52.8,54.7v-6.5h1.8l1.7,4.5h0v-4.5h1.3v6.5h-1.8l-1.8-4.8h0v4.8H52.8z"/>
		<path class="st1" d="M61.8,50.2c0-0.6-0.1-1.1-0.8-1.1c-0.8,0-0.8,1.1-0.8,2.4c0,2,0.2,2.4,1,2.4c0.2,0,0.5-0.1,0.7-0.1v-1.4H61
			v-1h2.1v3.3c-0.4,0.1-1.3,0.2-1.8,0.2c-2.3,0-2.5-0.9-2.5-3.4c0-1.6,0.1-3.3,2.3-3.3c1.3,0,2.2,0.7,2.1,2.1H61.8z"/>
	</g>
	<g>
	</g>
	<g>
	</g>
	<g>
	</g>
	<g>
	</g>
	<g>
	</g>
	<g>
	</g>
</g>
</svg>
